<?xml version="1.0" encoding="UTF-8" standalone="no"?><!DOCTYPE svg PUBLIC "-//W3C//DTD SVG 1.1//EN" "http://www.w3.org/Graphics/SVG/1.1/DTD/svg11.dtd"><svg width="100%" height="100%" viewBox="0 0 26 26" version="1.1" xmlns="http://www.w3.org/2000/svg" xmlns:xlink="http://www.w3.org/1999/xlink" xml:space="preserve" style="fill-rule:evenodd;clip-rule:evenodd;stroke-linejoin:round;stroke-miterlimit:1.41421;"><path d="M26,9l0,-1l-8,0l0,-8l-1,0l0,8l-8,0l0,-8l-1,0l0,8l-8,0l0,1l8,0l0,8l-8,0l0,1l8,0l0,8l1,0l0,-8l8,0l0,8l1,0l0,-8l8,0l0,-1l-8,0l0,-8l8,0ZM17,17l-8,0l0,-8l8,0l0,8Z" style="fill:#000;fill-rule:nonzero;"/><path d="M7,13c0,-1.656 -1.343,-3 -3,-3c-1.656,0 -3,1.344 -3,3c0,1.656 1.344,3 3,3c1.657,0 3,-1.344 3,-3ZM2,13c0,-1.103 0.897,-2 2,-2c1.104,0 2,0.897 2,2c0,1.103 -0.896,2 -2,2c-1.103,0 -2,-0.897 -2,-2Z" style="fill:#000;fill-rule:nonzero;"/><path d="M22,7c1.657,0 3,-1.344 3,-3c0,-1.656 -1.343,-3 -3,-3c-1.656,0 -3,1.344 -3,3c0,1.656 1.344,3 3,3ZM22,2c1.103,0 2,0.897 2,2c0,1.103 -0.897,2 -2,2c-1.103,0 -2,-0.897 -2,-2c0,-1.103 0.897,-2 2,-2Z" style="fill:#000;fill-rule:nonzero;"/><path d="M10.879,15.828l2.121,-2.121l2.121,2.121l0.707,-0.707l-2.121,-2.121l2.121,-2.121l-0.707,-0.707l-2.121,2.121l-2.121,-2.121l-0.707,0.707l2.121,2.121l-2.121,2.121l0.707,0.707Z" style="fill:#000;fill-rule:nonzero;"/><path d="M24.121,19.172l-2.121,2.121l-2.121,-2.121l-0.707,0.707l2.121,2.121l-2.121,2.121l0.707,0.707l2.121,-2.121l2.121,2.121l0.707,-0.707l-2.121,-2.121l2.121,-2.121l-0.707,-0.707Z" style="fill:#000;fill-rule:nonzero;"/></svg>